<svg width="43" height="43" viewBox="0 0 43 43" fill="none" xmlns="http://www.w3.org/2000/svg">
<path d="M6.03503 27.0686C12.6804 22.079 19.3292 17.0894 26.0125 12.0702C29.1696 17.1059 32.2956 22.0988 35.4561 27.1378H19.2395C19.9641 26.5943 20.6196 26.1003 21.2752 25.6129C21.986 25.0826 22.6933 24.5458 23.4213 24.0386C23.6111 23.9069 23.8802 23.8114 24.1114 23.8081C25.6606 23.7883 27.2132 23.7982 28.7624 23.7982C28.9004 23.7982 29.0385 23.7982 29.2593 23.7982C27.8343 21.5224 26.4507 19.3125 25.043 17.0631C24.2045 17.6888 23.3971 18.2915 22.5898 18.8975C19.0221 21.5751 15.4545 24.256 11.8868 26.9336C11.7591 27.0291 11.5935 27.1476 11.4452 27.1476C9.65444 27.1608 7.86371 27.1575 6.07299 27.1575C6.05919 27.1279 6.04884 27.0982 6.03503 27.0686Z" fill="black"/>
<rect x="0.5" y="0.5" width="42" height="42" stroke="black"/>
</svg>
