<svg width="67" height="67" viewBox="0 0 67 67" fill="none" xmlns="http://www.w3.org/2000/svg">
<path d="M7 45.9097C19.073 36.9576 31.1523 28.0054 43.2943 19C49.0299 28.0349 54.7091 36.993 60.451 46.0338H30.9893C32.3057 45.0588 33.4967 44.1725 34.6877 43.298C35.979 42.3466 37.264 41.3834 38.5867 40.4734C38.9314 40.2371 39.4204 40.0657 39.8403 40.0598C42.6549 40.0243 45.4757 40.0421 48.2902 40.0421C48.5409 40.0421 48.7917 40.0421 49.1928 40.0421C46.604 35.9589 44.0903 31.994 41.5328 27.9581C40.0096 29.0808 38.5428 30.1622 37.076 31.2494C30.5944 36.0535 24.1128 40.8634 17.6313 45.6675C17.3993 45.8388 17.0985 46.0516 16.8289 46.0516C13.5756 46.0752 10.3223 46.0693 7.06895 46.0693C7.04388 46.0161 7.02507 45.9629 7 45.9097Z" fill="white"/>
<rect x="0.5" y="0.5" width="66" height="66" stroke="white"/>
</svg>
