<svg width="32" height="32" viewBox="0 0 32 32" fill="none" xmlns="http://www.w3.org/2000/svg">
<path d="M30.9364 17.3167C30.6742 20.1537 29.6095 22.8573 27.8668 25.1113C26.1241 27.3653 23.7755 29.0763 21.0959 30.0442C18.4162 31.0121 15.5163 31.1969 12.7355 30.5768C9.95472 29.9568 7.40802 28.5576 5.3934 26.543C3.37879 24.5283 1.97959 21.9816 1.35954 19.2008C0.739485 16.42 0.924219 13.5201 1.89213 10.8405C2.86003 8.16085 4.57108 5.81228 6.82505 4.06959C9.07902 2.3269 11.7827 1.26218 14.6197 1C12.9587 3.24711 12.1594 6.01575 12.3672 8.80236C12.5751 11.589 13.7761 14.2084 15.752 16.1843C17.7279 18.1602 20.3474 19.3613 23.134 19.5691C25.9206 19.7769 28.6892 18.9776 30.9364 17.3167V17.3167Z" stroke="black" stroke-width="1.5" stroke-linecap="round" stroke-linejoin="round"/>
</svg>
