<svg width="32" height="32" viewBox="0 0 32 32" fill="none" xmlns="http://www.w3.org/2000/svg">
<path d="M31 17.3167C30.7378 20.1537 29.6731 22.8573 27.9304 25.1113C26.1877 27.3653 23.8392 29.0763 21.1595 30.0442C18.4799 31.0121 15.58 31.1969 12.7992 30.5768C10.0184 29.9568 7.47168 28.5576 5.45706 26.543C3.44245 24.5283 2.04325 21.9816 1.4232 19.2008C0.803145 16.42 0.987879 13.5201 1.95579 10.8405C2.92369 8.16085 4.63474 5.81228 6.88871 4.06959C9.14268 2.3269 11.8463 1.26218 14.6834 1C13.0224 3.24711 12.2231 6.01575 12.4309 8.80236C12.6387 11.589 13.8398 14.2084 15.8157 16.1843C17.7916 18.1602 20.4111 19.3613 23.1977 19.5691C25.9843 19.7769 28.7529 18.9776 31 17.3167V17.3167Z" stroke="black" stroke-width="2" stroke-linecap="round" stroke-linejoin="round"/>
</svg>
