<svg width="332" height="254" viewBox="0 0 332 254" fill="none" xmlns="http://www.w3.org/2000/svg">
<path d="M0.0851533 129.637C0.0851533 105.181 -0.080096 80.6907 0.0851533 56.2338C0.217353 36.2717 8.94252 27.91 29.136 27.877C55.8072 27.877 82.4784 27.7117 109.15 27.9761C115.363 28.0422 118.536 26.8525 120.089 19.8789C124.815 -1.30602 121.51 0.181199 145.009 0.181199C161.963 0.181199 178.918 0.577787 195.839 0.0159393C204.598 -0.281509 208.2 3.58531 209.853 11.5173C213.257 27.8439 213.455 27.8439 229.848 27.8439C254.635 27.8439 279.423 27.7778 304.21 27.8439C321.925 27.91 331.245 36.6021 331.311 54.2838C331.542 105.114 331.542 155.912 331.311 206.743C331.245 223.268 321.33 232.621 304.507 232.786C282.86 232.984 261.179 232.588 239.564 233.051C234.574 233.15 229.154 234.802 224.791 237.281C185.363 259.556 146.166 259.59 106.704 237.281C102.341 234.802 96.8882 233.15 91.8977 233.051C70.5805 232.588 49.2303 232.984 27.8801 232.819C9.5374 232.687 0.184303 223.334 0.0851533 204.892C-0.080096 179.807 0.0520893 154.689 0.0190395 129.604L0.0851533 129.637ZM6.82733 86.6066C6.82733 126.927 6.79428 165.497 6.82733 204.066C6.82733 219.401 13.1729 225.614 28.7063 225.647C50.6845 225.713 72.6296 225.449 94.6077 225.813C99.0034 225.879 103.928 227.3 107.695 229.547C146.265 252.649 184.669 252.814 223.37 229.845C227.435 227.432 232.624 225.912 237.317 225.813C258.965 225.383 280.612 225.647 302.26 225.647C318.487 225.647 324.635 219.632 324.668 203.669C324.734 167.579 324.701 131.521 324.668 95.4309C324.668 92.7208 324.271 90.0438 323.974 86.5405C319.809 86.5405 316.405 86.5405 313.034 86.5405C295.452 86.5405 277.869 86.7388 260.32 86.4083C256.982 86.3422 253.677 84.1278 250.372 82.905C250.702 81.6491 251 80.4262 251.33 79.1703H324.701C324.701 70.5774 324.767 63.4056 324.701 56.2338C324.536 41.0308 318.653 35.0819 303.582 35.0488C279.092 34.9827 254.635 35.0488 230.145 35.0488C208.564 35.0488 208.2 35.1479 203.044 14.3265C201.524 8.17926 198.649 7.15472 193.295 7.25387C178.554 7.48521 163.781 7.31998 149.041 7.31998C130.07 7.31998 129.608 7.22084 125.972 25.7618C124.485 33.2641 121.411 35.2801 114.14 35.181C85.2877 34.8174 56.4021 34.9827 27.5165 35.0488C13.0076 35.0819 7.05868 41.13 6.82733 55.738C6.72818 61.059 7.19088 66.4461 6.72818 71.7341C6.16633 78.1788 9.04166 79.7322 14.9245 79.6661C33.7629 79.4017 52.5683 79.5339 71.4067 79.6C74.5795 79.6 77.7192 80.0296 80.859 80.261L81.2225 83.8635C77.4218 84.7558 73.6541 86.4083 69.8534 86.4414C49.2303 86.7057 28.6072 86.5735 6.79427 86.5735L6.82733 86.6066Z" fill="white"/>
<path d="M273.441 24.24C268.979 22.257 260.519 27.8424 260.948 17.8614C261.279 10.0616 267.591 8.60742 274.267 8.60742C280.811 8.60742 286.661 10.9209 286.76 17.8614C286.893 28.1399 278.002 22.1248 273.441 24.24Z" fill="white"/>
<path d="M58.2866 12.4085C60.4679 12.4085 62.9466 11.7806 64.7974 12.5738C67.1439 13.5653 68.9947 15.7466 71.0438 17.3991C69.1269 19.5473 67.5075 23.0836 65.2601 23.5794C60.7984 24.5709 55.8078 24.5709 51.313 23.6455C48.9004 23.1497 47.0166 19.9108 44.9014 17.8948C47.1818 16.0771 49.2639 13.7636 51.8418 12.5738C53.6596 11.7475 56.1383 12.4085 58.3196 12.4085H58.2866Z" fill="white"/>
<path d="M165.633 42.0884C219.736 41.7909 264.617 86.2761 264.882 140.511C265.146 195.44 220.959 240.421 166.426 240.685C111.663 240.949 66.9462 196.597 66.6818 141.8C66.4174 87.0363 110.704 42.4189 165.633 42.1215V42.0884ZM250.373 141.866C250.538 94.8029 212.663 56.5643 165.864 56.5312C119.33 56.5312 81.6534 94.0428 81.2568 140.775C80.8602 187.739 118.702 225.912 165.732 225.912C212.366 225.912 250.241 188.334 250.406 141.833L250.373 141.866Z" fill="white"/>
<path d="M276.052 71.4689C271.987 71.4689 267.921 71.4689 263.856 71.4689C251.727 71.4028 251.363 70.7418 251.496 58.7447C251.562 52.8288 253.479 50.1848 259.692 50.35C270.631 50.6475 281.604 50.7136 292.577 50.35C301.599 50.0195 300.376 56.0016 300.674 61.6861C300.971 67.9656 299.682 72.1299 292.081 71.5681C286.793 71.1715 281.439 71.502 276.118 71.502L276.052 71.4689Z" fill="white"/>
<path d="M166.227 12.4766C169.367 12.4766 172.474 12.6088 175.58 12.4766C181.496 12.1461 185.76 12.6419 185.793 20.64C185.826 28.4397 182.62 30.3236 175.647 29.8939C168.177 29.4312 160.642 29.5303 153.173 29.8608C146.133 30.1583 146.034 25.8288 145.935 20.7061C145.836 15.5503 147.025 12.1461 153.107 12.4766C157.469 12.708 161.865 12.5097 166.227 12.5097V12.4766Z" fill="white"/>
<path d="M72.069 46.0205C75.9358 52.1347 80.0009 55.7041 79.7365 58.943C79.5052 61.9175 74.6469 64.5284 71.8376 67.3046C68.9292 64.2971 64.3683 61.587 63.6743 58.1168C63.1455 55.5719 67.7064 52.0025 72.102 46.0205H72.069Z" fill="white"/>
<path d="M235.104 141.437C235.104 179.94 204.136 210.842 165.666 210.809C127.295 210.809 96.4264 179.742 96.4595 141.206C96.5256 102.901 127.857 71.4708 165.897 71.603C204.103 71.7352 235.137 103.066 235.104 141.437ZM188.603 130.002C200.071 130.63 209.523 122.434 210.151 111.329C210.812 99.431 202.616 89.7804 191.081 88.9872C180.01 88.194 169.665 97.5471 169.235 108.784C168.806 119.922 177.432 129.407 188.569 130.035L188.603 130.002ZM169.83 102.042C154.66 97.1836 136.846 106.834 128.815 122.599C119.429 140.975 124.783 162.556 141.936 175.247C157.668 186.914 180.968 184.832 195.246 170.521C207.044 158.656 210.812 139.157 203.376 128.581C201.988 163.548 190.916 178.817 166.558 179.312C146.266 179.742 129.179 164.242 127.427 143.817C125.609 122.5 140.878 106.867 169.83 102.042ZM165.996 152.476C169.599 147.287 173.796 143.784 173.234 141.503C172.408 138.331 168.046 136.05 165.17 133.406C162.724 136.149 158.527 138.76 158.329 141.669C158.131 144.379 162.163 147.386 165.996 152.476Z" fill="white"/>
</svg>
